<svg id="Layer_1" data-name="Layer 1" xmlns="http://www.w3.org/2000/svg" viewBox="0 0 560 560"><defs><style>.cls-1{fill:#fff;}.cls-2{fill:none;stroke:#fff;stroke-miterlimit:10;stroke-width:10px;}</style></defs><title>Artboard 1</title><path class="cls-1" d="M130.6,309.11c-18.18,0-22.95-11.43-22.95-23.67s4.95-23.66,22.77-23.66c14,0,20.7,7.47,20.7,19h-9.81c-.63-7.11-3.51-11.16-11.16-11.16-9.9,0-12.69,6.84-12.69,15.74,0,8.73,2.7,15.48,12.87,15.48,7.65,0,10.35-3.78,11-10.44h9.81C151.12,301.73,144.73,309.11,130.6,309.11Z"/><path class="cls-1" d="M179.11,309.11c-18.09,0-22.77-11.43-22.77-23.67s4.77-23.66,22.86-23.66c17.91,0,22.86,11.52,22.86,23.66C202.06,297.77,197.11,309.11,179.11,309.11Zm.09-39.5c-10.71,0-13,7.2-13,15.83s2.34,15.84,13,15.84c10.8,0,13.14-6.93,13.14-15.84C192.25,276.9,190.09,269.61,179.2,269.61Z"/><path class="cls-1" d="M242.38,308.48V282.83c0-8.18-1.44-13-11.25-13s-11.88,4.77-11.88,13v25.65h-9.63V262.41h5.22l2.16,6.48c1.53-3.15,6.39-7.11,16.83-7.11,15.12,0,18.09,8.82,18.09,21.87v24.83Z"/><path class="cls-1" d="M280.36,309.11c-15.57,0-22.23-6.12-22.23-17.82h9.45c0,6.3,3.6,10.17,12.6,10.17,8.19,0,10.8-3.06,11-5.76.27-10-32.13-3.33-32.13-19.79,0-8.1,5.58-14.13,20.16-14.13,14.94,0,20.25,7,20.25,17.19h-9c-.36-6-3.06-9.72-11.52-9.72-7.74,0-10.35,2.88-10.35,5.85,0,8.9,32,2.79,32,20.06C300.61,301.91,294.94,309.11,280.36,309.11Z"/><path class="cls-1" d="M317.71,270.15v25.1c0,4.32,1.8,6.3,11.79,5.85v7.74c-15.21.9-21.6-2.7-21.6-13.59v-25.1h-6.57v-5.76l6.57-2V250.89h9.54v11.52H329.5v7.74Z"/><path class="cls-1" d="M369.64,308.48l-2-6.93c-2.16,3.6-8.55,7.56-18.09,7.56-9.9,0-17.82-4.41-17.82-14.13,0-8.46,6-12.33,19.17-13.58L365.41,280c-.27-6.66-2.7-10.53-12-10.53-8.55,0-10.89,3.42-10.89,9.17l-9.36.1c0-9.54,4-16.92,20.16-16.92,18.81,0,21.51,8.1,21.51,20.51v26.19Zm-4.23-21.24-13.05,1.44c-8,.9-10.71,2.61-10.71,6.21,0,4.23,3.6,6.66,10.35,6.66,8.46,0,13.41-4.86,13.41-12.87Z"/><path class="cls-1" d="M394.21,270.15v25.1c0,4.32,1.8,6.3,11.79,5.85v7.74c-15.21.9-21.6-2.7-21.6-13.59v-25.1h-6.57v-5.76l6.57-2V250.89h9.54v11.52H406v7.74Z"/><path class="cls-1" d="M431.65,309.11c-18.54,0-23.13-11.43-23.13-23.76s4.68-23.57,23-23.57c17,0,21.78,13,20.61,27.44H418.51c.54,7.92,4.5,12.51,12.78,12.51,7.65,0,10.08-3.69,11-7.38h10.08C451.54,302.18,446.14,309.11,431.65,309.11Zm-1-39.86c-9,0-11.61,5.58-12.06,12.33h23.67s.09,0,0-.1.09-.08,0-.08C442.36,275.1,439.39,269.25,430.66,269.25Z"/><circle class="cls-2" cx="280" cy="280" r="275"/></svg>